<svg width="54" height="54" viewBox="0 0 54 54" fill="none" xmlns="http://www.w3.org/2000/svg">
<path d="M45.9392 5.81726C43.4541 0.835657 37.4012 -1.18821 32.4197 1.29685C31.4442 1.7834 30.5542 2.42494 29.7843 3.19646L27.793 5.18782C27.3555 5.62504 26.6465 5.62504 26.2093 5.18782L24.2157 3.19646C20.2767 -0.742511 13.8903 -0.742533 9.95134 3.19646C6.01237 7.13543 6.01234 13.5218 9.95134 17.4608L24.937 33.0937C26.0294 34.2332 27.8389 34.2711 28.9781 33.1786C29.007 33.1508 29.0353 33.1226 29.063 33.0937L44.0486 17.4608C47.121 14.392 47.8829 9.70048 45.9392 5.81726Z" fill="white"/>
<path d="M9.35776 35.7125C8.01703 36.6076 7.5734 38.3734 8.33184 39.796L11.32 44.7621C11.6392 45.2923 11.4682 45.9807 10.9381 46.2999C10.408 46.6191 9.7195 46.4482 9.40032 45.918L6.37184 40.878C5.45653 39.1072 5.56347 36.9815 6.65184 35.3116C6.77394 35.1286 6.8394 34.9135 6.84 34.6933V28.2399C6.84 26.3843 5.33569 24.8799 3.48 24.8799C1.62433 24.8799 0.120003 26.3843 0.120003 28.2399V39.8229L0.120003 39.8252C0.120002 42.1147 0.899431 44.3361 2.33002 46.1236L8.296 53.5788C8.50817 53.8444 8.82957 53.9994 9.16958 53.9999H18.04C18.6586 53.9999 19.16 53.4983 19.16 52.8799V46.1375L19.16 46.1373C19.1619 44.1439 18.5717 42.1949 17.4643 40.5375C13.2374 36.1359 11.9158 34.0056 9.35776 35.7125Z" fill="white"/>
<path d="M50.52 24.8799C48.6644 24.8799 47.16 26.3843 47.16 28.2399V34.6933C47.1607 34.9135 47.2261 35.1286 47.3482 35.3116C48.4366 36.9815 48.5434 39.1072 47.6282 40.878L44.5997 45.918C44.2805 46.4482 43.5921 46.6191 43.0619 46.2999C42.5317 45.9807 42.3608 45.2923 42.68 44.7621L45.6682 39.796C46.4266 38.3734 45.9829 36.6076 44.6422 35.7125C42.0842 34.0056 40.7626 36.1359 36.5357 40.5442C35.4282 42.2018 34.838 44.1508 34.84 46.1442V52.8799C34.84 53.4983 35.3415 53.9999 35.96 53.9999H44.8304C45.1704 53.9994 45.4919 53.8444 45.704 53.5788L51.6714 46.1218C53.1016 44.3338 53.8804 42.1124 53.88 39.8229V28.2399C53.88 26.3843 52.3756 24.8799 50.52 24.8799Z" fill="white"/>
</svg>
